PathFileType	4	(X/Y/Z)	Patient4_TMGait_0pt4_01_right_41.trc.trc
DataRate	CameraRate	NumFrames	NumMarkers	Units	OrigDataRate	OrigDataStartFrame	OrigNumFrames
75.268817204301	75.268817204301	5	33	mm	75.268817204301	53	       141
Frame#	Time	Sacral			L.Shoulder			Chest			R.Shoulder			Neck			R.ASIS			L.ASIS			R.Thigh.Superior			R.Thigh.Lateral			R.Thigh.Inferior			R.Patella			L.Thigh.Superior			L.Thigh.Lateral			L.Thigh.Inferior			L.Patella			L.Shank.Superior			L.Shank.Lateral			L.Shank.Inferior			R.Shank.Superior			R.Shank.Lateral			R.Shank.Inferior			R.Heel			R.Midfoot.Superior			R.Midfoot.Lateral			R.Toe			L.Heel			L.Midfoot.Lateral			L.Midfoot.Superior			L.Toe			L.Elbow			L.Wrist			R.Elbow			R.Wrist			
		X1	Y1	Z1	X2	Y2	Z2	X3	Y3	Z3	X4	Y4	Z4	X5	Y5	Z5	X6	Y6	Z6	X7	Y7	Z7	X8	Y8	Z8	X9	Y9	Z9	X10	Y10	Z10	X11	Y11	Z11	X12	Y12	Z12	X13	Y13	Z13	X14	Y14	Z14	X15	Y15	Z15	X16	Y16	Z16	X17	Y17	Z17	X18	Y18	Z18	X19	Y19	Z19	X20	Y20	Z20	X21	Y21	Z21	X22	Y22	Z22	X23	Y23	Z23	X24	Y24	Z24	X25	Y25	Z25	X26	Y26	Z26	X27	Y27	Z27	X28	Y28	Z28	X29	Y29	Z29	X30	Y30	Z30	X31	Y31	Z31	X32	Y32	Z32	X33	Y33	Z33	

53	54.160857142857	859.129857748496	1005.354241807343	538.222913191608	1032.276000625697	1429.538694895714	341.540097863752	1141.473503426996	1367.438125100684	500.713691855572	1065.347679707970	1444.878876548725	676.225039679764	1020.072062880880	1495.926699344290	496.565091422021	1092.876097330060	943.985369789285	647.375728840286	1067.977527576490	963.997647327146	374.135006078189	1126.556700624172	739.608077464973	615.451017311916	1042.694325296549	630.553314529796	673.888157761407	1118.844325878230	578.036012976659	593.724553047032	1115.243870323633	488.822963246743	598.411214077875	1152.054339193840	783.363993522847	392.327032058286	1105.820765105437	659.351861791625	307.803450346540	1214.353078418424	599.579606524086	360.250302688883	1233.777340482461	517.910551019938	349.413255498780	1184.574574059700	445.230670320472	337.651964315753	1060.181225497773	366.358556574260	290.175489099055	1092.697097704979	234.804366015262	331.992099081132	1080.671779613119	400.929749380786	601.185681778899	1001.509137138828	300.594549099560	659.475172235806	1036.748052760352	205.175793014051	592.693007449141	891.856420771789	45.558374734098	557.194217619025	1064.449431112446	96.677389311149	594.821789672675	975.130935809767	37.534786206368	632.046418224439	1183.641867011290	40.227220883412	621.417804397157	936.297776562102	113.665690206364	372.880919384663	997.388947666217	92.228019293969	285.791168636193	1096.874934848447	129.072351131097	302.358382462512	1200.596242725606	47.477794527953	259.776410835963	995.366117739279	1072.210957738325	242.768666351162	1053.560360296627	819.479946851608	220.009176173960	1113.158733777306	1108.285923548162	818.785128151246	1327.439426271524	966.934998022010	788.916591776137	
54	54.174142857143	857.908908697198	1006.219411815745	539.034843783901	1031.314929094839	1430.199345573557	342.172484081493	1141.522443149403	1367.188553301812	500.307616777265	1067.167970883760	1444.586858407630	676.608084050923	1020.419036150276	1496.181509010534	497.311344779484	1092.114806082759	943.818766018754	646.510339558712	1065.718503845627	964.268308900245	373.409087193865	1123.428765124384	739.003728087825	614.386660265384	1038.907407684556	630.663261090320	673.584412097424	1113.851935016012	577.461981033404	592.940369003084	1109.427611766209	488.724964587500	597.670818188634	1149.206167130819	783.911066443920	391.554383569928	1103.125701110774	659.740610836079	307.133291289727	1211.559410799318	600.363766894797	360.095201937880	1232.423222812074	520.550017066082	349.177316083699	1186.937912198679	447.276161383934	336.981034596321	1068.049030604594	361.379594775664	288.340677255174	1108.254627686928	231.614131698433	330.112292138665	1074.983470939357	400.858763216650	600.771072975554	996.024678238366	300.499551703903	659.237926519819	1031.313471577387	205.100369560059	592.521935885406	886.487712099217	45.351807426336	557.304154590204	1059.072577842745	96.651345834003	594.814333996616	969.735507567311	37.488749567884	632.115789904918	1178.246194885794	40.281959486859	621.476613219760	959.543523184123	100.619404737742	369.991670605749	1022.245341235849	83.658909911741	283.029674497423	1119.236409666610	126.369923457452	300.131015824019	1228.031272779324	51.629413673498	257.599774792533	986.509188702399	1073.873868307389	243.374442402747	1037.805269861417	819.848381694586	219.901480784885	1120.786113616757	1108.743116821662	818.097110924297	1339.817176729499	975.971103638850	785.410208782334	
55	54.187428571429	856.782853662241	1007.035553109619	539.692025341515	1030.289103796710	1430.821788603824	342.653804029965	1141.546083117342	1366.934721258269	499.714323190411	1068.959563713618	1444.241072359005	676.800102243843	1020.732611472844	1496.382870969189	497.884739207012	1091.404098405809	943.609843912537	645.469093991691	1063.556512355433	964.507767075030	372.525332497932	1120.232065543460	738.322834647868	613.133841335768	1035.003438055403	630.762040462426	673.147996625565	1108.601215615392	576.849309726752	591.977145957694	1103.331920447045	488.650178116214	596.734949415862	1146.101535938406	784.040814460543	390.892659475426	1100.237563844049	659.957562221021	306.277956106402	1208.186117618202	600.639616160449	360.185762078828	1230.421949746564	522.822888134469	349.189736849105	1188.712515927309	449.215067904739	336.541929672966	1075.987743888245	356.594420624894	286.235275960127	1123.482208552962	229.106418934898	328.403316832372	1069.079704574340	400.801863587834	600.213870448111	990.427913876711	300.380809855361	658.923025303927	1025.782454280194	205.020380103448	592.259938403253	881.101880307727	45.090127107700	557.407298005157	1053.662638925482	96.624808629324	594.777099213402	964.323643362521	37.435982099030	632.180487089383	1172.837218527840	40.380558081524	621.517811778164	982.749390020866	88.975584637037	366.655740806673	1047.309925067463	76.200094460976	280.303220751082	1141.406127383790	124.528001474701	298.359196029210	1254.952298322186	56.573552106981	256.841178071914	977.698635309186	1075.647605309820	243.929081622847	1022.728053925916	820.635426228763	219.682825899464	1128.162410505295	1109.143625349996	817.010811010884	1351.319635994473	984.647408654673	781.516831563311	
56	54.200714285714	855.778155208501	1007.791309955773	540.207037366195	1029.206552846242	1431.393375063512	342.967554286815	1141.544089566781	1366.680595056761	498.928172793675	1070.711306322858	1443.858583701378	676.784737630985	1021.011116181183	1496.529163818690	498.277243976256	1090.761317629484	943.362388000432	644.272121331523	1061.483738082757	964.709120962108	371.505548533195	1116.992693048163	737.570094503658	611.740356466061	1030.994409521982	630.857914264424	672.604447755271	1103.122268719457	576.207943957285	590.882396982461	1096.983577503641	488.595704325480	595.653818236246	1142.815301190431	783.806528590228	390.341866496148	1097.254192162539	660.056098156475	305.227074672649	1204.375184617625	600.475178883735	360.430110608736	1227.880824332035	524.742159298455	349.379926147514	1189.936964457392	451.059932087090	336.290235425732	1083.860617265673	352.155282432391	283.948065475487	1138.121526570887	227.364807674615	326.925778782797	1062.984375458658	400.767725247350	599.552228958687	984.723829030476	300.253246803869	658.563515038651	1020.157119440909	204.946040403127	591.934330077616	875.697335147451	44.791388803602	557.500716014825	1048.220642717854	96.600754033588	594.718379461362	958.896776677943	37.378100697047	632.242765310397	1167.415602709323	40.524815567515	621.539907368982	1005.470160844368	78.974580064321	363.080393762564	1072.105425957945	69.987896687219	277.785812835168	1162.995914182644	123.596742872192	297.120797517132	1280.903638642601	62.212880482174	257.547951727739	969.059058720662	1077.486124557233	244.435212689405	1008.365352498038	821.736542925272	219.338312129723	1135.236154233569	1109.493357780372	815.543146157387	1361.931148725446	992.915236870084	777.251670671372	
57	54.214000000000	854.917031346894	1008.477633817843	540.591829188598	1028.075857741669	1431.906388718234	343.098559414876	1141.516097146297	1366.430804908440	497.945086266903	1072.413719340371	1443.457997741681	676.548594041243	1021.253670666117	1496.620913990841	498.485641512382	1090.206121193542	943.083236894664	642.938821414836	1059.497105413508	964.869632701452	370.363000197569	1113.741584969248	736.755109503089	610.249131949781	1026.902503271943	630.959991045218	671.977723178400	1097.460859529477	575.550754101956	589.702458432826	1090.427782443497	488.558704791708	594.479988929590	1139.437304204667	783.278152841058	389.880432806074	1094.261349093859	660.072479119018	303.997634698659	1200.286067024654	599.946556680660	360.727864143571	1224.919504907081	526.319106831521	349.673254564363	1190.658496600797	452.805945906620	336.166131505482	1091.480929375590	348.169387337282	281.604169215819	1151.910510475294	226.392752604693	325.716965733536	1056.734458371037	400.765602073306	598.825071339754	978.926222132281	300.134561824801	658.188907461825	1014.446408623971	204.888227949711	591.572640277237	870.274201068379	44.476833047024	557.582004314267	1042.749232072690	96.581558200588	594.646058634387	953.457901553087	37.317388320906	632.304018905168	1161.982502857986	40.713611974083	621.542496244603	1027.250566761471	70.720466679629	359.514918223440	1096.097563836738	65.053523722943	275.635645584688	1183.593730036083	123.533578507215	296.433161331630	1305.414922307424	68.367776475753	259.586247403052	960.716076784364	1079.344436208407	244.882788721211	994.757924857522	823.057910210623	218.858038015160	1141.951364721393	1109.796597314320	813.714475541787	1371.635750012069	1000.737944090416	772.631862833370	
